<svg width="1440" height="230" viewBox="0 0 1440 230" fill="none" xmlns="http://www.w3.org/2000/svg">
<path d="M1440 277.702L0 277.702L2.14368e-05 32.4938C148 152.994 751.389 50.9938 876 32.4938C1000.61 13.9938 1240 -18.8542 1440 13.9938L1440 277.702Z" fill="url(#paint0_linear_920_2)"/>
<path d="M873.119 111.882V115.995H859.496V111.882H873.119ZM861.219 90.4014V115.995H855.945V90.4014H861.219ZM871.344 100.825V104.833H859.496V100.825H871.344ZM873.102 90.4014V94.5322H859.496V90.4014H873.102ZM880.941 100.913V115.995H875.861V96.9756H880.625L880.941 100.913ZM880.238 105.817H878.832C878.832 104.493 878.99 103.274 879.307 102.161C879.635 101.036 880.109 100.063 880.73 99.2432C881.363 98.4111 882.143 97.7666 883.068 97.3096C883.994 96.8525 885.066 96.624 886.285 96.624C887.129 96.624 887.902 96.7529 888.605 97.0107C889.309 97.2568 889.912 97.6494 890.416 98.1885C890.932 98.7158 891.33 99.4072 891.611 100.263C891.893 101.106 892.033 102.12 892.033 103.304V115.995H886.971V103.866C886.971 102.999 886.854 102.331 886.619 101.862C886.385 101.394 886.051 101.065 885.617 100.878C885.195 100.69 884.686 100.597 884.088 100.597C883.432 100.597 882.857 100.731 882.365 101.001C881.885 101.271 881.486 101.646 881.17 102.126C880.854 102.595 880.619 103.146 880.467 103.778C880.314 104.411 880.238 105.091 880.238 105.817ZM891.559 105.237L889.748 105.466C889.748 104.224 889.9 103.069 890.205 102.003C890.521 100.937 890.984 99.999 891.594 99.1904C892.215 98.3818 892.982 97.7549 893.896 97.3096C894.811 96.8525 895.865 96.624 897.061 96.624C897.975 96.624 898.807 96.7588 899.557 97.0283C900.307 97.2861 900.945 97.7021 901.473 98.2764C902.012 98.8389 902.422 99.5771 902.703 100.491C902.996 101.405 903.143 102.524 903.143 103.849V115.995H898.062V103.849C898.062 102.97 897.945 102.302 897.711 101.845C897.488 101.376 897.16 101.054 896.727 100.878C896.305 100.69 895.801 100.597 895.215 100.597C894.605 100.597 894.072 100.72 893.615 100.966C893.158 101.2 892.777 101.528 892.473 101.95C892.168 102.372 891.939 102.864 891.787 103.427C891.635 103.978 891.559 104.581 891.559 105.237ZM917.328 111.706V103.233C917.328 102.624 917.229 102.103 917.029 101.669C916.83 101.224 916.52 100.878 916.098 100.632C915.688 100.386 915.154 100.263 914.498 100.263C913.936 100.263 913.449 100.362 913.039 100.562C912.629 100.749 912.312 101.024 912.09 101.388C911.867 101.739 911.756 102.155 911.756 102.636H906.693C906.693 101.827 906.881 101.06 907.256 100.333C907.631 99.6064 908.176 98.9678 908.891 98.417C909.605 97.8545 910.455 97.415 911.439 97.0986C912.436 96.7822 913.549 96.624 914.779 96.624C916.256 96.624 917.568 96.8701 918.717 97.3623C919.865 97.8545 920.768 98.5928 921.424 99.5771C922.092 100.562 922.426 101.792 922.426 103.269V111.407C922.426 112.45 922.49 113.306 922.619 113.974C922.748 114.63 922.936 115.204 923.182 115.696V115.995H918.066C917.82 115.479 917.633 114.835 917.504 114.062C917.387 113.276 917.328 112.491 917.328 111.706ZM917.996 104.411L918.031 107.276H915.201C914.533 107.276 913.953 107.353 913.461 107.505C912.969 107.657 912.564 107.874 912.248 108.155C911.932 108.425 911.697 108.741 911.545 109.104C911.404 109.468 911.334 109.866 911.334 110.3C911.334 110.733 911.434 111.126 911.633 111.478C911.832 111.817 912.119 112.087 912.494 112.286C912.869 112.474 913.309 112.567 913.812 112.567C914.574 112.567 915.236 112.415 915.799 112.11C916.361 111.806 916.795 111.431 917.1 110.985C917.416 110.54 917.58 110.118 917.592 109.72L918.928 111.864C918.74 112.345 918.482 112.843 918.154 113.358C917.838 113.874 917.434 114.36 916.941 114.817C916.449 115.263 915.857 115.632 915.166 115.925C914.475 116.206 913.654 116.347 912.705 116.347C911.498 116.347 910.402 116.106 909.418 115.626C908.445 115.134 907.672 114.46 907.098 113.604C906.535 112.737 906.254 111.753 906.254 110.651C906.254 109.655 906.441 108.771 906.816 107.997C907.191 107.224 907.742 106.573 908.469 106.046C909.207 105.507 910.127 105.103 911.229 104.833C912.33 104.552 913.607 104.411 915.061 104.411H917.996ZM931.672 96.9756V115.995H926.592V96.9756H931.672ZM926.275 92.0186C926.275 91.2803 926.533 90.6709 927.049 90.1904C927.564 89.71 928.256 89.4697 929.123 89.4697C929.979 89.4697 930.664 89.71 931.18 90.1904C931.707 90.6709 931.971 91.2803 931.971 92.0186C931.971 92.7568 931.707 93.3662 931.18 93.8467C930.664 94.3271 929.979 94.5674 929.123 94.5674C928.256 94.5674 927.564 94.3271 927.049 93.8467C926.533 93.3662 926.275 92.7568 926.275 92.0186ZM941.199 88.9951V115.995H936.119V88.9951H941.199ZM965.598 111.442V96.9756H970.66V115.995H965.896L965.598 111.442ZM966.16 107.54L967.654 107.505C967.654 108.771 967.508 109.948 967.215 111.038C966.922 112.116 966.482 113.054 965.896 113.851C965.311 114.636 964.572 115.251 963.682 115.696C962.791 116.13 961.742 116.347 960.535 116.347C959.609 116.347 958.754 116.218 957.969 115.96C957.195 115.69 956.527 115.274 955.965 114.712C955.414 114.138 954.98 113.405 954.664 112.515C954.359 111.612 954.207 110.528 954.207 109.263V96.9756H959.27V109.298C959.27 109.86 959.334 110.335 959.463 110.722C959.604 111.108 959.797 111.425 960.043 111.671C960.289 111.917 960.576 112.093 960.904 112.198C961.244 112.304 961.619 112.356 962.029 112.356C963.072 112.356 963.893 112.146 964.49 111.724C965.1 111.302 965.527 110.728 965.773 110.001C966.031 109.263 966.16 108.442 966.16 107.54ZM984.811 110.739C984.811 110.376 984.705 110.048 984.494 109.755C984.283 109.462 983.891 109.192 983.316 108.946C982.754 108.688 981.939 108.454 980.873 108.243C979.912 108.032 979.016 107.769 978.184 107.452C977.363 107.124 976.648 106.731 976.039 106.274C975.441 105.817 974.973 105.278 974.633 104.657C974.293 104.024 974.123 103.304 974.123 102.495C974.123 101.698 974.293 100.948 974.633 100.245C974.984 99.542 975.482 98.9209 976.127 98.3818C976.783 97.8311 977.58 97.4033 978.518 97.0986C979.467 96.7822 980.533 96.624 981.717 96.624C983.369 96.624 984.787 96.8877 985.971 97.415C987.166 97.9424 988.08 98.6689 988.713 99.5947C989.357 100.509 989.68 101.552 989.68 102.724H984.617C984.617 102.231 984.512 101.792 984.301 101.405C984.102 101.007 983.785 100.696 983.352 100.474C982.93 100.239 982.379 100.122 981.699 100.122C981.137 100.122 980.65 100.222 980.24 100.421C979.83 100.608 979.514 100.866 979.291 101.194C979.08 101.511 978.975 101.862 978.975 102.249C978.975 102.542 979.033 102.806 979.15 103.04C979.279 103.263 979.484 103.468 979.766 103.655C980.047 103.843 980.41 104.019 980.855 104.183C981.312 104.335 981.875 104.476 982.543 104.604C983.914 104.886 985.139 105.255 986.217 105.712C987.295 106.157 988.15 106.767 988.783 107.54C989.416 108.302 989.732 109.304 989.732 110.546C989.732 111.39 989.545 112.163 989.17 112.866C988.795 113.569 988.256 114.185 987.553 114.712C986.85 115.228 986.006 115.632 985.021 115.925C984.049 116.206 982.953 116.347 981.734 116.347C979.965 116.347 978.465 116.03 977.234 115.397C976.016 114.765 975.09 113.962 974.457 112.989C973.836 112.005 973.525 110.997 973.525 109.966H978.324C978.348 110.657 978.523 111.214 978.852 111.636C979.191 112.058 979.619 112.362 980.135 112.55C980.662 112.737 981.23 112.831 981.84 112.831C982.496 112.831 983.041 112.743 983.475 112.567C983.908 112.38 984.236 112.134 984.459 111.829C984.693 111.513 984.811 111.149 984.811 110.739ZM1012.25 111.706V103.233C1012.25 102.624 1012.15 102.103 1011.95 101.669C1011.75 101.224 1011.44 100.878 1011.02 100.632C1010.61 100.386 1010.08 100.263 1009.42 100.263C1008.86 100.263 1008.37 100.362 1007.96 100.562C1007.55 100.749 1007.23 101.024 1007.01 101.388C1006.79 101.739 1006.68 102.155 1006.68 102.636H1001.62C1001.62 101.827 1001.8 101.06 1002.18 100.333C1002.55 99.6064 1003.1 98.9678 1003.81 98.417C1004.53 97.8545 1005.38 97.415 1006.36 97.0986C1007.36 96.7822 1008.47 96.624 1009.7 96.624C1011.18 96.624 1012.49 96.8701 1013.64 97.3623C1014.79 97.8545 1015.69 98.5928 1016.35 99.5771C1017.01 100.562 1017.35 101.792 1017.35 103.269V111.407C1017.35 112.45 1017.41 113.306 1017.54 113.974C1017.67 114.63 1017.86 115.204 1018.1 115.696V115.995H1012.99C1012.74 115.479 1012.55 114.835 1012.43 114.062C1012.31 113.276 1012.25 112.491 1012.25 111.706ZM1012.92 104.411L1012.95 107.276H1010.12C1009.46 107.276 1008.88 107.353 1008.38 107.505C1007.89 107.657 1007.49 107.874 1007.17 108.155C1006.85 108.425 1006.62 108.741 1006.47 109.104C1006.33 109.468 1006.26 109.866 1006.26 110.3C1006.26 110.733 1006.36 111.126 1006.55 111.478C1006.75 111.817 1007.04 112.087 1007.42 112.286C1007.79 112.474 1008.23 112.567 1008.73 112.567C1009.5 112.567 1010.16 112.415 1010.72 112.11C1011.28 111.806 1011.72 111.431 1012.02 110.985C1012.34 110.54 1012.5 110.118 1012.51 109.72L1013.85 111.864C1013.66 112.345 1013.4 112.843 1013.08 113.358C1012.76 113.874 1012.36 114.36 1011.86 114.817C1011.37 115.263 1010.78 115.632 1010.09 115.925C1009.4 116.206 1008.58 116.347 1007.63 116.347C1006.42 116.347 1005.32 116.106 1004.34 115.626C1003.37 115.134 1002.59 114.46 1002.02 113.604C1001.46 112.737 1001.18 111.753 1001.18 110.651C1001.18 109.655 1001.36 108.771 1001.74 107.997C1002.11 107.224 1002.66 106.573 1003.39 106.046C1004.13 105.507 1005.05 105.103 1006.15 104.833C1007.25 104.552 1008.53 104.411 1009.98 104.411H1012.92ZM1030.57 96.9756V100.562H1019.49V96.9756H1030.57ZM1022.23 92.2822H1027.3V110.265C1027.3 110.815 1027.37 111.237 1027.51 111.53C1027.66 111.823 1027.88 112.028 1028.18 112.146C1028.47 112.251 1028.84 112.304 1029.28 112.304C1029.6 112.304 1029.88 112.292 1030.13 112.269C1030.38 112.233 1030.6 112.198 1030.78 112.163L1030.79 115.89C1030.36 116.03 1029.89 116.142 1029.39 116.224C1028.88 116.306 1028.33 116.347 1027.72 116.347C1026.61 116.347 1025.63 116.165 1024.8 115.802C1023.98 115.427 1023.35 114.829 1022.9 114.009C1022.46 113.188 1022.23 112.11 1022.23 110.774V92.2822ZM1047.35 88.9951V115.995H1042.29V88.9951H1047.35ZM1046.63 105.817H1045.24C1045.26 104.493 1045.43 103.274 1045.77 102.161C1046.11 101.036 1046.6 100.063 1047.23 99.2432C1047.86 98.4111 1048.62 97.7666 1049.5 97.3096C1050.39 96.8525 1051.37 96.624 1052.45 96.624C1053.39 96.624 1054.24 96.7588 1055 97.0283C1055.77 97.2861 1056.44 97.708 1056.99 98.2939C1057.55 98.8682 1057.98 99.624 1058.29 100.562C1058.59 101.499 1058.74 102.636 1058.74 103.972V115.995H1053.65V103.937C1053.65 103.093 1053.52 102.431 1053.28 101.95C1053.04 101.458 1052.7 101.112 1052.24 100.913C1051.79 100.702 1051.24 100.597 1050.59 100.597C1049.86 100.597 1049.24 100.731 1048.72 101.001C1048.22 101.271 1047.82 101.646 1047.51 102.126C1047.21 102.595 1046.98 103.146 1046.84 103.778C1046.7 104.411 1046.63 105.091 1046.63 105.817ZM1071.35 116.347C1069.87 116.347 1068.55 116.112 1067.38 115.644C1066.2 115.163 1065.21 114.501 1064.39 113.657C1063.58 112.813 1062.96 111.835 1062.52 110.722C1062.09 109.597 1061.87 108.401 1061.87 107.136V106.433C1061.87 104.991 1062.08 103.673 1062.49 102.478C1062.9 101.282 1063.48 100.245 1064.25 99.3662C1065.02 98.4873 1065.96 97.8135 1067.06 97.3447C1068.16 96.8643 1069.4 96.624 1070.79 96.624C1072.13 96.624 1073.33 96.8467 1074.37 97.292C1075.41 97.7373 1076.29 98.3701 1076.99 99.1904C1077.71 100.011 1078.24 100.995 1078.61 102.144C1078.97 103.28 1079.15 104.546 1079.15 105.94V108.05H1064.04V104.675H1074.18V104.288C1074.18 103.585 1074.05 102.958 1073.79 102.407C1073.54 101.845 1073.17 101.399 1072.67 101.071C1072.16 100.743 1071.52 100.579 1070.73 100.579C1070.06 100.579 1069.49 100.726 1069.01 101.019C1068.53 101.312 1068.14 101.722 1067.83 102.249C1067.54 102.776 1067.32 103.397 1067.16 104.112C1067.02 104.815 1066.95 105.589 1066.95 106.433V107.136C1066.95 107.897 1067.06 108.601 1067.27 109.245C1067.49 109.89 1067.8 110.446 1068.2 110.915C1068.61 111.384 1069.1 111.747 1069.68 112.005C1070.26 112.263 1070.93 112.392 1071.66 112.392C1072.58 112.392 1073.43 112.216 1074.21 111.864C1075.01 111.501 1075.7 110.956 1076.27 110.229L1078.73 112.901C1078.33 113.476 1077.79 114.026 1077.1 114.554C1076.42 115.081 1075.6 115.515 1074.63 115.854C1073.67 116.183 1072.58 116.347 1071.35 116.347ZM1087.38 88.9951V115.995H1082.3V88.9951H1087.38ZM1096.91 88.9951V115.995H1091.83V88.9951H1096.91ZM1100.28 106.679V106.31C1100.28 104.915 1100.48 103.632 1100.88 102.46C1101.28 101.276 1101.86 100.251 1102.62 99.3838C1103.38 98.5166 1104.32 97.8428 1105.43 97.3623C1106.54 96.8701 1107.82 96.624 1109.26 96.624C1110.71 96.624 1111.99 96.8701 1113.11 97.3623C1114.24 97.8428 1115.18 98.5166 1115.94 99.3838C1116.72 100.251 1117.3 101.276 1117.7 102.46C1118.1 103.632 1118.3 104.915 1118.3 106.31V106.679C1118.3 108.062 1118.1 109.345 1117.7 110.528C1117.3 111.7 1116.72 112.726 1115.94 113.604C1115.18 114.472 1114.24 115.146 1113.13 115.626C1112.02 116.106 1110.74 116.347 1109.3 116.347C1107.86 116.347 1106.57 116.106 1105.45 115.626C1104.34 115.146 1103.39 114.472 1102.62 113.604C1101.86 112.726 1101.28 111.7 1100.88 110.528C1100.48 109.345 1100.28 108.062 1100.28 106.679ZM1105.34 106.31V106.679C1105.34 107.476 1105.41 108.22 1105.55 108.911C1105.7 109.603 1105.92 110.212 1106.22 110.739C1106.54 111.255 1106.95 111.659 1107.45 111.952C1107.96 112.245 1108.57 112.392 1109.3 112.392C1110 112.392 1110.61 112.245 1111.11 111.952C1111.61 111.659 1112.02 111.255 1112.32 110.739C1112.63 110.212 1112.85 109.603 1112.99 108.911C1113.14 108.22 1113.22 107.476 1113.22 106.679V106.31C1113.22 105.536 1113.14 104.81 1112.99 104.13C1112.85 103.438 1112.62 102.829 1112.3 102.302C1112 101.763 1111.6 101.341 1111.09 101.036C1110.59 100.731 1109.98 100.579 1109.26 100.579C1108.55 100.579 1107.94 100.731 1107.44 101.036C1106.94 101.341 1106.54 101.763 1106.22 102.302C1105.92 102.829 1105.7 103.438 1105.55 104.13C1105.41 104.81 1105.34 105.536 1105.34 106.31ZM1131.69 110.739C1131.69 110.376 1131.59 110.048 1131.38 109.755C1131.17 109.462 1130.77 109.192 1130.2 108.946C1129.64 108.688 1128.82 108.454 1127.76 108.243C1126.79 108.032 1125.9 107.769 1125.07 107.452C1124.25 107.124 1123.53 106.731 1122.92 106.274C1122.32 105.817 1121.86 105.278 1121.52 104.657C1121.18 104.024 1121.01 103.304 1121.01 102.495C1121.01 101.698 1121.18 100.948 1121.52 100.245C1121.87 99.542 1122.37 98.9209 1123.01 98.3818C1123.67 97.8311 1124.46 97.4033 1125.4 97.0986C1126.35 96.7822 1127.42 96.624 1128.6 96.624C1130.25 96.624 1131.67 96.8877 1132.85 97.415C1134.05 97.9424 1134.96 98.6689 1135.6 99.5947C1136.24 100.509 1136.56 101.552 1136.56 102.724H1131.5C1131.5 102.231 1131.39 101.792 1131.18 101.405C1130.98 101.007 1130.67 100.696 1130.23 100.474C1129.81 100.239 1129.26 100.122 1128.58 100.122C1128.02 100.122 1127.53 100.222 1127.12 100.421C1126.71 100.608 1126.4 100.866 1126.17 101.194C1125.96 101.511 1125.86 101.862 1125.86 102.249C1125.86 102.542 1125.92 102.806 1126.03 103.04C1126.16 103.263 1126.37 103.468 1126.65 103.655C1126.93 103.843 1127.29 104.019 1127.74 104.183C1128.2 104.335 1128.76 104.476 1129.43 104.604C1130.8 104.886 1132.02 105.255 1133.1 105.712C1134.18 106.157 1135.03 106.767 1135.67 107.54C1136.3 108.302 1136.62 109.304 1136.62 110.546C1136.62 111.39 1136.43 112.163 1136.05 112.866C1135.68 113.569 1135.14 114.185 1134.44 114.712C1133.73 115.228 1132.89 115.632 1131.9 115.925C1130.93 116.206 1129.84 116.347 1128.62 116.347C1126.85 116.347 1125.35 116.03 1124.12 115.397C1122.9 114.765 1121.97 113.962 1121.34 112.989C1120.72 112.005 1120.41 110.997 1120.41 109.966H1125.21C1125.23 110.657 1125.41 111.214 1125.73 111.636C1126.07 112.058 1126.5 112.362 1127.02 112.55C1127.54 112.737 1128.11 112.831 1128.72 112.831C1129.38 112.831 1129.92 112.743 1130.36 112.567C1130.79 112.38 1131.12 112.134 1131.34 111.829C1131.58 111.513 1131.69 111.149 1131.69 110.739ZM1147.76 112.392C1148.38 112.392 1148.93 112.274 1149.41 112.04C1149.89 111.794 1150.27 111.454 1150.54 111.021C1150.82 110.575 1150.96 110.054 1150.98 109.456H1155.74C1155.73 110.792 1155.37 111.981 1154.67 113.024C1153.96 114.056 1153.02 114.87 1151.84 115.468C1150.65 116.054 1149.33 116.347 1147.87 116.347C1146.39 116.347 1145.1 116.101 1144 115.608C1142.91 115.116 1142 114.437 1141.27 113.569C1140.55 112.69 1140 111.671 1139.64 110.511C1139.28 109.339 1139.09 108.085 1139.09 106.749V106.239C1139.09 104.892 1139.28 103.638 1139.64 102.478C1140 101.306 1140.55 100.286 1141.27 99.4189C1142 98.54 1142.91 97.8545 1144 97.3623C1145.09 96.8701 1146.37 96.624 1147.83 96.624C1149.39 96.624 1150.75 96.9229 1151.93 97.5205C1153.11 98.1182 1154.04 98.9736 1154.7 100.087C1155.38 101.188 1155.73 102.495 1155.74 104.007H1150.98C1150.96 103.374 1150.83 102.8 1150.57 102.284C1150.33 101.769 1149.96 101.358 1149.48 101.054C1149.01 100.737 1148.43 100.579 1147.74 100.579C1147 100.579 1146.4 100.737 1145.93 101.054C1145.46 101.358 1145.1 101.78 1144.84 102.319C1144.58 102.847 1144.4 103.45 1144.3 104.13C1144.2 104.798 1144.16 105.501 1144.16 106.239V106.749C1144.16 107.487 1144.2 108.196 1144.3 108.876C1144.39 109.556 1144.57 110.159 1144.82 110.687C1145.09 111.214 1145.46 111.63 1145.93 111.935C1146.4 112.239 1147.01 112.392 1147.76 112.392ZM1157.87 106.679V106.31C1157.87 104.915 1158.07 103.632 1158.46 102.46C1158.86 101.276 1159.44 100.251 1160.21 99.3838C1160.97 98.5166 1161.9 97.8428 1163.02 97.3623C1164.13 96.8701 1165.41 96.624 1166.85 96.624C1168.29 96.624 1169.57 96.8701 1170.7 97.3623C1171.82 97.8428 1172.77 98.5166 1173.53 99.3838C1174.3 100.251 1174.89 101.276 1175.29 102.46C1175.69 103.632 1175.88 104.915 1175.88 106.31V106.679C1175.88 108.062 1175.69 109.345 1175.29 110.528C1174.89 111.7 1174.3 112.726 1173.53 113.604C1172.77 114.472 1171.83 115.146 1170.72 115.626C1169.6 116.106 1168.33 116.347 1166.88 116.347C1165.44 116.347 1164.16 116.106 1163.04 115.626C1161.92 115.146 1160.98 114.472 1160.21 113.604C1159.44 112.726 1158.86 111.7 1158.46 110.528C1158.07 109.345 1157.87 108.062 1157.87 106.679ZM1162.93 106.31V106.679C1162.93 107.476 1163 108.22 1163.14 108.911C1163.28 109.603 1163.5 110.212 1163.81 110.739C1164.12 111.255 1164.54 111.659 1165.04 111.952C1165.54 112.245 1166.16 112.392 1166.88 112.392C1167.59 112.392 1168.19 112.245 1168.7 111.952C1169.2 111.659 1169.6 111.255 1169.91 110.739C1170.21 110.212 1170.44 109.603 1170.58 108.911C1170.73 108.22 1170.8 107.476 1170.8 106.679V106.31C1170.8 105.536 1170.73 104.81 1170.58 104.13C1170.44 103.438 1170.21 102.829 1169.89 102.302C1169.59 101.763 1169.18 101.341 1168.68 101.036C1168.17 100.731 1167.56 100.579 1166.85 100.579C1166.13 100.579 1165.53 100.731 1165.02 101.036C1164.53 101.341 1164.12 101.763 1163.81 102.302C1163.5 102.829 1163.28 103.438 1163.14 104.13C1163 104.81 1162.93 105.536 1162.93 106.31ZM1188.31 96.9756V100.562H1177.24V96.9756H1188.31ZM1179.98 92.2822H1185.04V110.265C1185.04 110.815 1185.11 111.237 1185.25 111.53C1185.41 111.823 1185.63 112.028 1185.92 112.146C1186.21 112.251 1186.58 112.304 1187.03 112.304C1187.35 112.304 1187.63 112.292 1187.87 112.269C1188.13 112.233 1188.35 112.198 1188.52 112.163L1188.54 115.89C1188.11 116.03 1187.64 116.142 1187.13 116.224C1186.63 116.306 1186.07 116.347 1185.46 116.347C1184.35 116.347 1183.38 116.165 1182.55 115.802C1181.73 115.427 1181.09 114.829 1180.65 114.009C1180.2 113.188 1179.98 112.11 1179.98 110.774V92.2822ZM1200.51 96.9756V100.562H1189.44V96.9756H1200.51ZM1192.18 92.2822H1197.24V110.265C1197.24 110.815 1197.31 111.237 1197.45 111.53C1197.61 111.823 1197.83 112.028 1198.12 112.146C1198.41 112.251 1198.78 112.304 1199.23 112.304C1199.54 112.304 1199.83 112.292 1200.07 112.269C1200.33 112.233 1200.55 112.198 1200.72 112.163L1200.74 115.89C1200.31 116.03 1199.84 116.142 1199.33 116.224C1198.83 116.306 1198.27 116.347 1197.66 116.347C1196.55 116.347 1195.58 116.165 1194.75 115.802C1193.93 115.427 1193.29 114.829 1192.85 114.009C1192.4 113.188 1192.18 112.11 1192.18 110.774V92.2822ZM1209.04 113.851L1214.08 96.9756H1219.51L1211.87 118.86C1211.7 119.341 1211.48 119.856 1211.2 120.407C1210.93 120.958 1210.56 121.479 1210.09 121.972C1209.63 122.476 1209.05 122.886 1208.35 123.202C1207.66 123.519 1206.81 123.677 1205.8 123.677C1205.32 123.677 1204.93 123.647 1204.62 123.589C1204.32 123.53 1203.96 123.448 1203.54 123.343V119.634C1203.66 119.634 1203.8 119.634 1203.94 119.634C1204.08 119.646 1204.21 119.651 1204.34 119.651C1205.01 119.651 1205.56 119.575 1205.98 119.423C1206.4 119.271 1206.74 119.036 1207 118.72C1207.26 118.415 1207.46 118.017 1207.61 117.524L1209.04 113.851ZM1206.93 96.9756L1211.06 110.757L1211.78 116.118L1208.33 116.487L1201.5 96.9756H1206.93ZM1226.88 88.9951V115.995H1221.8V88.9951H1226.88ZM1241.33 111.706V103.233C1241.33 102.624 1241.23 102.103 1241.03 101.669C1240.83 101.224 1240.52 100.878 1240.1 100.632C1239.69 100.386 1239.15 100.263 1238.5 100.263C1237.94 100.263 1237.45 100.362 1237.04 100.562C1236.63 100.749 1236.31 101.024 1236.09 101.388C1235.87 101.739 1235.76 102.155 1235.76 102.636H1230.69C1230.69 101.827 1230.88 101.06 1231.26 100.333C1231.63 99.6064 1232.18 98.9678 1232.89 98.417C1233.61 97.8545 1234.46 97.415 1235.44 97.0986C1236.44 96.7822 1237.55 96.624 1238.78 96.624C1240.26 96.624 1241.57 96.8701 1242.72 97.3623C1243.87 97.8545 1244.77 98.5928 1245.42 99.5771C1246.09 100.562 1246.43 101.792 1246.43 103.269V111.407C1246.43 112.45 1246.49 113.306 1246.62 113.974C1246.75 114.63 1246.94 115.204 1247.18 115.696V115.995H1242.07C1241.82 115.479 1241.63 114.835 1241.5 114.062C1241.39 113.276 1241.33 112.491 1241.33 111.706ZM1242 104.411L1242.03 107.276H1239.2C1238.53 107.276 1237.95 107.353 1237.46 107.505C1236.97 107.657 1236.56 107.874 1236.25 108.155C1235.93 108.425 1235.7 108.741 1235.54 109.104C1235.4 109.468 1235.33 109.866 1235.33 110.3C1235.33 110.733 1235.43 111.126 1235.63 111.478C1235.83 111.817 1236.12 112.087 1236.49 112.286C1236.87 112.474 1237.31 112.567 1237.81 112.567C1238.57 112.567 1239.24 112.415 1239.8 112.11C1240.36 111.806 1240.79 111.431 1241.1 110.985C1241.42 110.54 1241.58 110.118 1241.59 109.72L1242.93 111.864C1242.74 112.345 1242.48 112.843 1242.15 113.358C1241.84 113.874 1241.43 114.36 1240.94 114.817C1240.45 115.263 1239.86 115.632 1239.17 115.925C1238.47 116.206 1237.65 116.347 1236.71 116.347C1235.5 116.347 1234.4 116.106 1233.42 115.626C1232.45 115.134 1231.67 114.46 1231.1 113.604C1230.54 112.737 1230.25 111.753 1230.25 110.651C1230.25 109.655 1230.44 108.771 1230.82 107.997C1231.19 107.224 1231.74 106.573 1232.47 106.046C1233.21 105.507 1234.13 105.103 1235.23 104.833C1236.33 104.552 1237.61 104.411 1239.06 104.411H1242ZM1250.33 88.9951H1255.39V111.636L1254.88 115.995H1250.33V88.9951ZM1267.43 106.292V106.661C1267.43 108.079 1267.28 109.38 1266.97 110.563C1266.68 111.747 1266.22 112.772 1265.6 113.64C1264.98 114.495 1264.21 115.163 1263.28 115.644C1262.37 116.112 1261.29 116.347 1260.05 116.347C1258.89 116.347 1257.88 116.112 1257.03 115.644C1256.18 115.175 1255.47 114.513 1254.9 113.657C1254.32 112.802 1253.86 111.8 1253.51 110.651C1253.16 109.503 1252.89 108.249 1252.72 106.89V106.081C1252.89 104.722 1253.16 103.468 1253.51 102.319C1253.86 101.171 1254.32 100.169 1254.9 99.3135C1255.47 98.458 1256.18 97.7959 1257.03 97.3271C1257.87 96.8584 1258.87 96.624 1260.01 96.624C1261.27 96.624 1262.36 96.8643 1263.28 97.3447C1264.22 97.8135 1264.99 98.4814 1265.6 99.3486C1266.22 100.204 1266.68 101.224 1266.97 102.407C1267.28 103.579 1267.43 104.874 1267.43 106.292ZM1262.37 106.661V106.292C1262.37 105.519 1262.31 104.792 1262.19 104.112C1262.09 103.421 1261.9 102.817 1261.63 102.302C1261.36 101.774 1260.99 101.358 1260.52 101.054C1260.07 100.749 1259.47 100.597 1258.75 100.597C1258.06 100.597 1257.47 100.714 1256.99 100.948C1256.51 101.183 1256.11 101.511 1255.79 101.933C1255.49 102.354 1255.26 102.858 1255.11 103.444C1254.96 104.019 1254.86 104.651 1254.83 105.343V107.646C1254.86 108.571 1255.02 109.392 1255.29 110.106C1255.57 110.81 1255.99 111.366 1256.55 111.776C1257.12 112.175 1257.87 112.374 1258.78 112.374C1259.5 112.374 1260.09 112.233 1260.56 111.952C1261.03 111.671 1261.39 111.272 1261.65 110.757C1261.92 110.241 1262.11 109.638 1262.21 108.946C1262.32 108.243 1262.37 107.481 1262.37 106.661ZM1280.86 110.739C1280.86 110.376 1280.76 110.048 1280.54 109.755C1280.33 109.462 1279.94 109.192 1279.37 108.946C1278.8 108.688 1277.99 108.454 1276.92 108.243C1275.96 108.032 1275.07 107.769 1274.23 107.452C1273.41 107.124 1272.7 106.731 1272.09 106.274C1271.49 105.817 1271.02 105.278 1270.68 104.657C1270.34 104.024 1270.17 103.304 1270.17 102.495C1270.17 101.698 1270.34 100.948 1270.68 100.245C1271.04 99.542 1271.53 98.9209 1272.18 98.3818C1272.83 97.8311 1273.63 97.4033 1274.57 97.0986C1275.52 96.7822 1276.58 96.624 1277.77 96.624C1279.42 96.624 1280.84 96.8877 1282.02 97.415C1283.22 97.9424 1284.13 98.6689 1284.76 99.5947C1285.41 100.509 1285.73 101.552 1285.73 102.724H1280.67C1280.67 102.231 1280.56 101.792 1280.35 101.405C1280.15 101.007 1279.84 100.696 1279.4 100.474C1278.98 100.239 1278.43 100.122 1277.75 100.122C1277.19 100.122 1276.7 100.222 1276.29 100.421C1275.88 100.608 1275.56 100.866 1275.34 101.194C1275.13 101.511 1275.03 101.862 1275.03 102.249C1275.03 102.542 1275.08 102.806 1275.2 103.04C1275.33 103.263 1275.54 103.468 1275.82 103.655C1276.1 103.843 1276.46 104.019 1276.91 104.183C1277.36 104.335 1277.93 104.476 1278.59 104.604C1279.96 104.886 1281.19 105.255 1282.27 105.712C1283.35 106.157 1284.2 106.767 1284.83 107.54C1285.47 108.302 1285.78 109.304 1285.78 110.546C1285.78 111.39 1285.6 112.163 1285.22 112.866C1284.85 113.569 1284.31 114.185 1283.6 114.712C1282.9 115.228 1282.06 115.632 1281.07 115.925C1280.1 116.206 1279 116.347 1277.79 116.347C1276.02 116.347 1274.52 116.03 1273.29 115.397C1272.07 114.765 1271.14 113.962 1270.51 112.989C1269.89 112.005 1269.58 110.997 1269.58 109.966H1274.38C1274.4 110.657 1274.57 111.214 1274.9 111.636C1275.24 112.058 1275.67 112.362 1276.19 112.55C1276.71 112.737 1277.28 112.831 1277.89 112.831C1278.55 112.831 1279.09 112.743 1279.53 112.567C1279.96 112.38 1280.29 112.134 1280.51 111.829C1280.74 111.513 1280.86 111.149 1280.86 110.739ZM1289.32 113.552C1289.32 112.802 1289.57 112.175 1290.09 111.671C1290.62 111.167 1291.31 110.915 1292.18 110.915C1293.05 110.915 1293.74 111.167 1294.26 111.671C1294.78 112.175 1295.05 112.802 1295.05 113.552C1295.05 114.302 1294.78 114.929 1294.26 115.433C1293.74 115.937 1293.05 116.188 1292.18 116.188C1291.31 116.188 1290.62 115.937 1290.09 115.433C1289.57 114.929 1289.32 114.302 1289.32 113.552ZM1298.7 106.679V106.31C1298.7 104.915 1298.9 103.632 1299.3 102.46C1299.7 101.276 1300.28 100.251 1301.04 99.3838C1301.8 98.5166 1302.74 97.8428 1303.85 97.3623C1304.97 96.8701 1306.24 96.624 1307.69 96.624C1309.13 96.624 1310.41 96.8701 1311.54 97.3623C1312.66 97.8428 1313.6 98.5166 1314.37 99.3838C1315.14 100.251 1315.72 101.276 1316.12 102.46C1316.52 103.632 1316.72 104.915 1316.72 106.31V106.679C1316.72 108.062 1316.52 109.345 1316.12 110.528C1315.72 111.7 1315.14 112.726 1314.37 113.604C1313.6 114.472 1312.67 115.146 1311.55 115.626C1310.44 116.106 1309.16 116.347 1307.72 116.347C1306.28 116.347 1305 116.106 1303.87 115.626C1302.76 115.146 1301.81 114.472 1301.04 113.604C1300.28 112.726 1299.7 111.7 1299.3 110.528C1298.9 109.345 1298.7 108.062 1298.7 106.679ZM1303.77 106.31V106.679C1303.77 107.476 1303.84 108.22 1303.98 108.911C1304.12 109.603 1304.34 110.212 1304.64 110.739C1304.96 111.255 1305.37 111.659 1305.88 111.952C1306.38 112.245 1306.99 112.392 1307.72 112.392C1308.42 112.392 1309.03 112.245 1309.53 111.952C1310.04 111.659 1310.44 111.255 1310.74 110.739C1311.05 110.212 1311.27 109.603 1311.41 108.911C1311.56 108.22 1311.64 107.476 1311.64 106.679V106.31C1311.64 105.536 1311.56 104.81 1311.41 104.13C1311.27 103.438 1311.04 102.829 1310.73 102.302C1310.42 101.763 1310.02 101.341 1309.51 101.036C1309.01 100.731 1308.4 100.579 1307.69 100.579C1306.97 100.579 1306.36 100.731 1305.86 101.036C1305.37 101.341 1304.96 101.763 1304.64 102.302C1304.34 102.829 1304.12 103.438 1303.98 104.13C1303.84 104.81 1303.77 105.536 1303.77 106.31ZM1324.89 101.124V115.995H1319.83V96.9756H1324.6L1324.89 101.124ZM1330.62 96.8525L1330.54 101.546C1330.29 101.511 1329.99 101.481 1329.64 101.458C1329.3 101.423 1328.99 101.405 1328.71 101.405C1327.99 101.405 1327.37 101.499 1326.85 101.687C1326.33 101.862 1325.9 102.126 1325.54 102.478C1325.21 102.829 1324.95 103.257 1324.77 103.761C1324.61 104.265 1324.51 104.839 1324.49 105.483L1323.47 105.167C1323.47 103.937 1323.59 102.806 1323.84 101.774C1324.09 100.731 1324.44 99.8232 1324.91 99.0498C1325.39 98.2764 1325.98 97.6787 1326.67 97.2568C1327.36 96.835 1328.15 96.624 1329.04 96.624C1329.32 96.624 1329.61 96.6475 1329.9 96.6943C1330.2 96.7295 1330.44 96.7822 1330.62 96.8525ZM1344.71 96.9756H1349.29V115.362C1349.29 117.097 1348.91 118.567 1348.13 119.774C1347.37 120.993 1346.3 121.913 1344.93 122.534C1343.56 123.167 1341.97 123.483 1340.15 123.483C1339.36 123.483 1338.51 123.378 1337.62 123.167C1336.74 122.956 1335.9 122.628 1335.09 122.183C1334.29 121.737 1333.62 121.175 1333.09 120.495L1335.32 117.507C1335.9 118.187 1336.58 118.714 1337.36 119.089C1338.13 119.476 1338.99 119.669 1339.92 119.669C1340.84 119.669 1341.61 119.499 1342.24 119.159C1342.88 118.831 1343.36 118.345 1343.7 117.7C1344.04 117.067 1344.21 116.3 1344.21 115.397V101.37L1344.71 96.9756ZM1331.91 106.714V106.345C1331.91 104.892 1332.08 103.573 1332.44 102.39C1332.8 101.194 1333.31 100.169 1333.96 99.3135C1334.63 98.458 1335.44 97.7959 1336.39 97.3271C1337.34 96.8584 1338.41 96.624 1339.61 96.624C1340.87 96.624 1341.93 96.8584 1342.79 97.3271C1343.64 97.7959 1344.35 98.4639 1344.9 99.3311C1345.45 100.187 1345.88 101.2 1346.18 102.372C1346.5 103.532 1346.74 104.804 1346.92 106.187V106.995C1346.74 108.319 1346.48 109.55 1346.13 110.687C1345.78 111.823 1345.31 112.819 1344.74 113.675C1344.17 114.519 1343.45 115.175 1342.6 115.644C1341.75 116.112 1340.74 116.347 1339.57 116.347C1338.4 116.347 1337.34 116.106 1336.39 115.626C1335.45 115.146 1334.65 114.472 1333.98 113.604C1333.31 112.737 1332.8 111.718 1332.44 110.546C1332.08 109.374 1331.91 108.097 1331.91 106.714ZM1336.97 106.345V106.714C1336.97 107.499 1337.05 108.231 1337.2 108.911C1337.35 109.591 1337.59 110.194 1337.9 110.722C1338.23 111.237 1338.63 111.642 1339.12 111.935C1339.61 112.216 1340.19 112.356 1340.86 112.356C1341.78 112.356 1342.54 112.163 1343.12 111.776C1343.71 111.378 1344.15 110.833 1344.44 110.142C1344.73 109.45 1344.9 108.653 1344.95 107.751V105.448C1344.93 104.71 1344.83 104.048 1344.65 103.462C1344.48 102.864 1344.23 102.354 1343.91 101.933C1343.6 101.511 1343.19 101.183 1342.68 100.948C1342.18 100.714 1341.58 100.597 1340.89 100.597C1340.22 100.597 1339.64 100.749 1339.15 101.054C1338.67 101.347 1338.27 101.751 1337.94 102.267C1337.62 102.782 1337.38 103.392 1337.22 104.095C1337.05 104.786 1336.97 105.536 1336.97 106.345ZM1358.94 90.4014L1358.36 108.173H1354.14L1353.55 90.4014H1358.94ZM1353.41 113.675C1353.41 112.925 1353.66 112.304 1354.18 111.812C1354.71 111.308 1355.4 111.056 1356.25 111.056C1357.12 111.056 1357.81 111.308 1358.33 111.812C1358.84 112.304 1359.1 112.925 1359.1 113.675C1359.1 114.401 1358.84 115.017 1358.33 115.521C1357.81 116.024 1357.12 116.276 1356.25 116.276C1355.4 116.276 1354.71 116.024 1354.18 115.521C1353.66 115.017 1353.41 114.401 1353.41 113.675Z" fill="#ECECEC"/>
<defs>
<linearGradient id="paint0_linear_920_2" x1="1440" y1="102.642" x2="1.78317" y2="209.364" gradientUnits="userSpaceOnUse">
<stop stop-color="#1437A8"/>
<stop offset="0.405799" stop-color="#C8315B"/>
<stop offset="0.550554" stop-color="#938BB0"/>
<stop offset="0.730574" stop-color="#66D9FA"/>
<stop offset="1" stop-color="#337FE4"/>
</linearGradient>
</defs>
</svg>
