<svg width="41" height="41" viewBox="0 0 41 41" fill="none" xmlns="http://www.w3.org/2000/svg">
<line x1="24.7144" y1="5.24219" x2="24.7144" y2="15.5993" stroke="#737373" stroke-width="7" stroke-linecap="round"/>
<line x1="35.0714" y1="24.5273" x2="24.7143" y2="24.5273" stroke="#737373" stroke-width="7" stroke-linecap="round"/>
<line x1="15.7858" y1="34.8848" x2="15.7858" y2="24.5276" stroke="#737373" stroke-width="7" stroke-linecap="round"/>
<line x1="5.42859" y1="15.5986" x2="15.7857" y2="15.5986" stroke="#737373" stroke-width="7" stroke-linecap="round"/>
<path d="M18.6968 10.9557C14.143 10.9557 12.3752 10.9557 11.1964 9.77695C9.3135 7.89406 9.9644 4.68734 11.1964 3.45535C13.0793 1.57246 15.4287 1.41983 17.6787 3.02697C19.2858 4.63411 18.6968 7.52695 18.6968 10.9557Z" fill="#737373"/>
<path d="M29.5179 18.8312C29.5179 14.2774 29.5179 12.5096 30.6967 11.3308C32.5796 9.4479 35.7863 10.0988 37.0183 11.3308C38.9012 13.2137 39.0538 15.5631 37.4467 17.8131C35.8395 19.4202 32.9467 18.8312 29.5179 18.8312Z" fill="#737373"/>
<path d="M21.4552 29.3304C26.009 29.3304 27.7768 29.3304 28.9556 30.5092C30.8385 32.3921 30.1876 35.5988 28.9556 36.8308C27.0727 38.7137 24.7233 38.8663 22.4733 37.2592C20.8661 35.652 21.4552 32.7592 21.4552 29.3304Z" fill="#737373"/>
<path d="M10.9557 21.2684C10.9557 25.8222 10.9557 27.59 9.77695 28.7688C7.89406 30.6517 4.68734 30.0008 3.45535 28.7688C1.57246 26.8859 1.41983 24.5365 3.02697 22.2865C4.63411 20.6794 7.52695 21.2684 10.9557 21.2684Z" fill="#737373"/>
</svg>
